<?xml version="1.0" encoding="UTF-8"?>
<svg width="60px" height="60px" viewBox="0 0 60 60" version="1.1" xmlns="http://www.w3.org/2000/svg" xmlns:xlink="http://www.w3.org/1999/xlink">
    <!-- Generator: Sketch 58 (84663) - https://sketch.com -->
    <title>list-icon</title>
    <desc>Created with Sketch.</desc>
    <g id="FocusTime" stroke="none" stroke-width="1" fill="none" fill-rule="evenodd">
        <g id="FocusTime_Landing-page" transform="translate(-690.000000, -770.000000)">
            <g id="Features" transform="translate(0.000000, 670.000000)">
                <g id="List" transform="translate(630.000000, 100.000000)">
                    <g id="Icons/List" transform="translate(60.000000, 0.000000)">
                        <rect id="Rectangle-Copy-13" fill="#EAF6FC" x="0" y="0" width="60" height="60" rx="10"></rect>
                        <g id="Group-12-Copy-3" stroke-width="1" transform="translate(19.000000, 19.000000)" fill="#13365A">
                            <path d="M18,0 C20.209139,0 22,1.790861 22,4 L22,18 C22,20.209139 20.209139,22 18,22 L4,22 C1.790861,22 0,20.209139 0,18 L0,4 C0,1.790861 1.790861,0 4,0 L18,0 Z M18,2 L4,2 C2.8954305,2 2,2.8954305 2,4 L2,18 C2,19.1045695 2.8954305,20 4,20 L18,20 C19.1045695,20 20,19.1045695 20,18 L20,4 C20,2.8954305 19.1045695,2 18,2 Z" id="Rectangle-Copy" fill-rule="nonzero"></path>
                            <path d="M9,12 L17,12 C17.5522847,12 18,11.5522847 18,11 C18,10.4477153 17.5522847,10 17,10 L9,10 C8.44771525,10 8,10.4477153 8,11 C8,11.5522847 8.44771525,12 9,12 Z" id="Path-5" fill-rule="nonzero"></path>
                            <path d="M9,17 L17,17 C17.5522847,17 18,16.5522847 18,16 C18,15.4477153 17.5522847,15 17,15 L9,15 C8.44771525,15 8,15.4477153 8,16 C8,16.5522847 8.44771525,17 9,17 Z" id="Path-5-Copy" fill-rule="nonzero"></path>
                            <path d="M9,7 L17,7 C17.5522847,7 18,6.55228475 18,6 C18,5.44771525 17.5522847,5 17,5 L9,5 C8.44771525,5 8,5.44771525 8,6 C8,6.55228475 8.44771525,7 9,7 Z" id="Path-5-Copy-2" fill-rule="nonzero"></path>
                            <circle id="Oval" cx="5" cy="6" r="1"></circle>
                            <circle id="Oval-Copy" cx="5" cy="16" r="1"></circle>
                            <circle id="Oval-Copy-2" cx="5" cy="11" r="1"></circle>
                        </g>
                    </g>
                </g>
            </g>
        </g>
    </g>
</svg>