<?xml version="1.0" encoding="UTF-8"?>
<svg width="60px" height="60px" viewBox="0 0 60 60" version="1.1" xmlns="http://www.w3.org/2000/svg" xmlns:xlink="http://www.w3.org/1999/xlink">
    <!-- Generator: Sketch 58 (84663) - https://sketch.com -->
    <title>settings-icon</title>
    <desc>Created with Sketch.</desc>
    <g id="FocusTime" stroke="none" stroke-width="1" fill="none" fill-rule="evenodd">
        <g id="FocusTime_Landing-page" transform="translate(-1051.000000, -770.000000)">
            <g id="Features" transform="translate(0.000000, 670.000000)">
                <g id="Settings" transform="translate(991.000000, 100.000000)">
                    <g id="Icons/Settings" transform="translate(60.000000, 0.000000)">
                        <rect id="Rectangle-Copy-14" fill="#EAF6FC" x="0" y="0" width="60" height="60" rx="10"></rect>
                        <g id="Shape-Copy-5" stroke-width="1" transform="translate(19.000000, 19.000000)" stroke="#13365A">
                            <path d="M21.2465,8.88461538 L20.0631538,8.88461538 C19.8296154,7.87980769 19.4344615,6.93761538 18.9043462,6.08680769 L19.7411923,5.24996154 C20.0352308,4.95592308 20.0352308,4.47869231 19.7411923,4.18465385 L17.8149231,2.25838462 C17.5208846,1.96434615 17.0436538,1.96434615 16.7496154,2.25838462 L15.9127692,3.09523077 C15.0623846,2.56553846 14.1201923,2.17038462 13.1153846,1.93684615 L13.1153846,0.7535 C13.1153846,0.337192308 12.7781923,0 12.3618846,0 L9.63769231,0 C9.22180769,0 8.88461538,0.337192308 8.88461538,0.7535 L8.88461538,1.93684615 C7.87980769,2.17038462 6.93761538,2.56553846 6.08680769,3.09565385 L5.25038462,2.25880769 C4.95634615,1.96476923 4.47911538,1.96476923 4.18507692,2.25880769 L2.25880769,4.18507692 C1.96476923,4.47911538 1.96476923,4.95634615 2.25880769,5.25038462 L3.09565385,6.08723077 C2.56553846,6.93761538 2.17038462,7.87980769 1.93684615,8.88461538 L0.7535,8.88461538 C0.337192308,8.88461538 0,9.22180769 0,9.63811538 L0,12.3623077 C0,12.7781923 0.337192308,13.1153846 0.7535,13.1153846 L1.93684615,13.1153846 C2.17038462,14.1201923 2.56553846,15.0623846 3.09565385,15.9131923 L2.25880769,16.7496154 C1.96476923,17.0440769 1.96476923,17.5208846 2.25880769,17.8149231 L4.18507692,19.7411923 C4.47911538,20.0352308 4.95634615,20.0352308 5.25038462,19.7411923 L6.08723077,18.9043462 C6.93803846,19.4340385 7.88023077,19.8296154 8.88503846,20.0631538 L8.88503846,21.2465 C8.88461538,21.6628077 9.22180769,22 9.63811538,22 L12.3623077,22 C12.7781923,22 13.1153846,21.6628077 13.1153846,21.2465 L13.1153846,20.0631538 C14.1201923,19.8296154 15.0623846,19.4344615 15.9131923,18.9043462 L16.7500385,19.7411923 C17.0440769,20.0352308 17.5213077,20.0352308 17.8153462,19.7411923 L19.7416154,17.8149231 C20.0356538,17.5208846 20.0356538,17.0436538 19.7416154,16.7496154 L18.9047692,15.9127692 C19.4344615,15.0623846 19.8296154,14.1197692 20.0635769,13.1149615 L21.2469231,13.1149615 C21.6628077,13.1153846 22,12.7781923 22,12.3618846 L22,9.63769231 C22,9.22180769 21.6628077,8.88461538 21.2465,8.88461538 Z M11,14.8076923 C8.89688462,14.8076923 7.19230769,13.1026923 7.19230769,11 C7.19230769,8.89688462 8.89688462,7.19230769 11,7.19230769 C13.1031154,7.19230769 14.8076923,8.89688462 14.8076923,11 C14.8076923,13.1026923 13.1031154,14.8076923 11,14.8076923 Z" id="Shape-Copy" stroke-width="2" fill-rule="nonzero"></path>
                        </g>
                    </g>
                </g>
            </g>
        </g>
    </g>
</svg>